<svg xmlns="http://www.w3.org/2000/svg" viewBox="0 0 242.31 242.31"><defs><style>.cls-1{fill:#1b1b1b;}.cls-2{fill:#d4a96a;}</style></defs><g id="Layer_2" data-name="Layer 2"><g id="Layer_1-2" data-name="Layer 1"><rect class="cls-1" width="242.31" height="242.31" rx="12"/><path class="cls-2" d="M109.34,216.44c-1.94-1.31-2.45-3.17-3.32-4.73-9.56-17.14-19.19-34.24-28.5-51.52-2.65-4.91-6.24-6.91-11.61-6.86-12.49.1-25,0-37.48,0H26.38c.87-1.35,2.2-1.55,3.45-2q20.33-6.83,40.63-13.71a30,30,0,0,1,6.32-1.35c5.36-.61,9.85.91,13.41,5q5.73,6.6,11.43,13.23c1.52,1.76,3,3.51,4.77,5.48,2.65-2.69,4.21-5.81,6.07-8.7,5.24-8.1,10.38-16.27,15.52-24.44a32.61,32.61,0,0,1,16.62-13.7q27.09-10.11,54.13-20.34c.62-.23,1.25-.47,1.91.2-.65,1.79-2.37,2.64-3.69,3.8-7.4,6.47-15,12.75-22.28,19.3a116.39,116.39,0,0,0-23.11,28.64C137.71,168.67,123.55,192.38,109.34,216.44Z"/><path class="cls-2" d="M30.82,139.22,215.93,25.87a9.19,9.19,0,0,1-2.07,4.24C203.05,45.7,192.17,61.25,181.44,76.9c-6.86,10-16.2,16.6-27.46,20.63-13.14,4.71-26.31,9.32-39.48,13.94q-38.11,13.35-76.23,26.66C36,138.93,33.72,140.38,30.82,139.22Z"/></g></g></svg>